<?xml version="1.0" standalone="no"?>
<!DOCTYPE svg PUBLIC "-//W3C//DTD SVG 20010904//EN"
 "http://www.w3.org/TR/2001/REC-SVG-20010904/DTD/svg10.dtd">
<svg version="1.0" xmlns="http://www.w3.org/2000/svg"
 width="800.000000pt" height="800.000000pt" viewBox="0 0 800.000000 800.000000"
 preserveAspectRatio="xMidYMid meet">
<metadata>
Created by potrace 1.14, written by Peter Selinger 2001-2017
</metadata>
<g transform="translate(0.000000,800.000000) scale(0.100000,-0.100000)"
fill="#000000" stroke="none">
<path d="M4172 5589 c-160 -17 -313 -89 -379 -178 -122 -164 -204 -235 -326
-280 -128 -47 -199 -17 -312 133 -111 146 -206 217 -348 257 -69 20 -106 23
-232 24 -177 0 -242 -14 -384 -82 -79 -38 -108 -59 -181 -131 -131 -131 -188
-259 -175 -387 l7 -62 -112 -58 c-133 -69 -160 -89 -160 -119 0 -27 40 -66 95
-94 73 -36 249 -94 312 -102 55 -7 69 -14 111 -52 49 -43 131 -91 292 -171 74
-37 94 -53 156 -125 39 -45 91 -114 115 -153 126 -201 171 -262 252 -345 109
-113 228 -200 372 -270 202 -99 399 -132 700 -118 99 5 226 8 283 7 118 -1
133 -9 150 -74 13 -50 16 -46 -148 -164 -281 -200 -438 -328 -617 -498 l-111
-107 -22 45 c-34 71 -130 136 -175 119 -25 -10 -28 -38 -5 -54 43 -30 90 -72
90 -81 0 -4 -32 8 -71 28 -94 47 -123 43 -227 -31 -106 -77 -222 -184 -222
-205 0 -19 30 -51 47 -51 6 0 51 34 99 76 137 118 186 148 230 141 20 -3 45
-14 55 -23 19 -17 18 -18 -23 -43 -70 -41 -189 -132 -195 -148 -7 -19 9 -47
29 -51 8 -2 49 21 92 50 149 103 178 113 266 88 42 -12 320 -50 362 -50 21 0
31 7 40 25 20 45 -6 59 -139 74 -188 22 -184 10 -52 133 194 181 378 329 618
497 142 99 181 137 181 175 0 18 -5 47 -11 65 -6 18 -9 35 -5 38 13 13 281
-55 323 -83 l22 -14 -63 -98 c-34 -53 -100 -162 -146 -242 -120 -211 -200
-323 -200 -281 0 5 -18 27 -40 50 -30 31 -48 41 -71 41 -42 0 -231 -102 -286
-156 -38 -36 -43 -45 -34 -62 18 -34 37 -32 108 15 78 52 180 103 205 103 20
0 72 -70 60 -82 -4 -4 -54 -20 -111 -35 -113 -31 -142 -52 -106 -79 22 -17 69
-13 178 14 58 14 73 14 100 3 86 -35 107 -40 168 -41 67 0 89 10 89 41 0 28
-40 49 -91 49 -51 0 -109 17 -109 31 0 6 26 49 58 97 32 48 124 198 205 333
80 135 152 251 160 257 11 10 25 8 63 -9 95 -40 273 -98 370 -119 54 -11 167
-25 251 -30 132 -8 163 -13 226 -38 94 -38 280 -82 344 -82 69 0 81 16 59 74
-9 24 -33 60 -53 79 -25 25 -32 38 -22 41 8 2 33 9 57 15 25 7 49 22 59 37 15
24 15 27 -5 53 l-21 28 37 24 c28 18 38 32 40 56 3 29 -1 34 -37 53 -99 50
-315 81 -591 85 -147 2 -227 9 -390 34 -113 17 -222 31 -243 31 -21 0 -86 7
-145 16 -59 8 -134 14 -167 12 l-60 -3 56 -32 c30 -18 105 -55 167 -82 61 -27
137 -67 169 -89 92 -62 178 -107 326 -171 128 -54 181 -82 132 -68 -11 4 -66
16 -123 27 -135 28 -302 81 -427 137 -140 62 -281 108 -415 136 -128 26 -116
16 -166 134 -28 66 -44 79 -75 63 -24 -13 -24 -20 0 -97 11 -35 16 -64 13 -65
-4 -2 -167 -3 -362 -3 -380 0 -390 1 -554 57 -91 31 -242 111 -321 170 -70 53
-219 197 -212 204 2 3 17 -2 33 -11 44 -23 94 -17 94 11 0 18 20 17 44 -1 11
-8 39 -15 63 -15 51 0 69 22 53 65 -5 14 -10 28 -10 30 0 1 35 -8 77 -22 47
-15 94 -23 122 -21 41 3 46 6 49 29 l3 27 77 -30 c42 -17 162 -59 267 -94 104
-36 234 -85 290 -109 160 -69 231 -84 475 -100 163 -10 289 -25 470 -55 96
-16 270 -38 385 -50 240 -25 366 -23 515 9 52 11 142 25 200 31 138 13 192 26
267 62 112 55 132 103 58 145 -77 44 -163 64 -325 74 -201 13 -279 30 -425 91
-231 98 -526 176 -819 218 -252 36 -421 94 -734 255 -174 90 -420 240 -409
251 2 3 56 -27 118 -67 230 -146 459 -249 699 -315 130 -36 468 -99 478 -90
11 12 -111 221 -186 321 -219 288 -591 525 -895 570 -26 4 -47 11 -47 16 0 5
10 7 23 5 12 -3 63 -13 112 -21 189 -34 409 -137 592 -277 50 -38 54 -39 90
-28 90 29 163 92 163 142 0 10 14 21 37 29 20 6 59 32 86 57 l48 46 152 9
c220 12 269 27 374 113 29 23 49 28 192 45 228 27 307 63 326 147 7 33 45 54
186 100 149 49 210 98 195 156 -3 14 -15 30 -27 36 -26 14 -2136 22 -2257 9z
m-1465 -434 c77 -46 123 -141 108 -222 -16 -90 -150 -163 -245 -134 -85 25
-142 105 -141 197 1 84 48 151 127 180 50 18 94 12 151 -21z m-633 -313 c31
-34 46 -99 24 -107 -7 -3 -95 -4 -193 -3 l-180 3 130 67 c148 76 178 82 219
40z m-41 -181 c64 -1 67 -2 57 -21 -16 -30 -59 -54 -94 -53 -34 1 -226 62
-226 72 0 5 86 6 263 2z"/>
<path d="M2575 5091 c-39 -17 -66 -57 -67 -98 -1 -77 45 -130 121 -140 36 -5
44 -2 76 30 27 27 35 43 35 71 0 92 -93 168 -165 137z"/>
<path d="M5795 5004 c-245 -59 -316 -90 -410 -177 -109 -99 -151 -199 -143
-341 8 -142 75 -231 231 -307 94 -46 100 -50 115 -104 19 -65 48 -105 77 -105
34 0 87 52 127 124 32 58 35 60 98 77 167 47 304 148 362 267 31 62 33 73 33
172 0 96 -2 110 -28 158 -54 102 -138 175 -243 211 -60 20 -182 34 -219 25z
m149 -99 c149 -32 245 -137 254 -280 10 -167 -101 -295 -318 -365 -52 -17
-103 -39 -113 -48 -11 -9 -32 -43 -48 -74 -16 -32 -34 -58 -39 -58 -5 0 -13
19 -16 41 -9 56 -35 81 -124 120 -92 40 -145 77 -175 122 -83 121 -43 309 87
418 145 120 311 162 492 124z"/>
<path d="M5790 4717 c-23 -12 -25 -19 -30 -102 l-5 -90 -12 45 c-7 25 -23 60
-37 79 -75 102 -122 72 -151 -99 -15 -81 -8 -110 25 -110 11 0 25 12 32 27 17
36 44 40 73 13 28 -26 55 -23 70 7 11 21 11 21 23 2 17 -27 50 -24 64 6 l11
25 23 -25 c27 -29 37 -31 58 -9 21 20 20 32 -3 70 -16 27 -17 34 -5 55 20 36
17 67 -11 94 -27 28 -83 33 -125 12z m60 -67 c0 -5 -4 -10 -10 -10 -5 0 -10 5
-10 10 0 6 5 10 10 10 6 0 10 -4 10 -10z"/>
<path d="M5993 4714 c-21 -9 -15 -52 8 -64 18 -10 20 -17 13 -81 -5 -49 -3
-73 6 -84 31 -37 67 2 77 83 3 31 13 58 24 68 24 21 24 50 2 62 -23 12 -114
23 -130 16z"/>
<path d="M5425 4658 c-42 -33 -52 -68 -44 -148 4 -38 14 -82 21 -97 26 -54 85
-36 73 23 -5 28 -1 35 25 54 16 12 30 30 30 40 0 24 -30 41 -58 33 -36 -9 -25
15 15 34 40 19 52 45 33 68 -18 22 -63 18 -95 -7z"/>
<path d="M1865 4294 c-39 -40 -43 -107 -6 -117 25 -6 35 1 55 41 34 65 -3 122
-49 76z"/>
<path d="M2044 3776 c-15 -61 16 -114 54 -90 21 13 28 79 11 100 -19 23 -58
18 -65 -10z"/>
<path d="M1825 3496 c-9 -14 -15 -37 -13 -53 2 -22 9 -29 31 -31 24 -3 30 2
46 40 13 29 15 47 9 56 -17 20 -56 14 -73 -12z"/>
<path d="M2237 3352 c-30 -33 -18 -82 19 -82 17 0 27 8 34 26 13 34 13 40 -6
58 -20 20 -27 20 -47 -2z"/>
<path d="M3259 3068 c-7 -13 -12 -69 -13 -131 -1 -103 0 -110 23 -128 28 -23
35 -24 55 -3 13 12 16 40 16 138 0 81 -4 126 -12 134 -19 19 -56 14 -69 -10z"/>
<path d="M3458 3079 c-27 -15 -23 -57 7 -71 25 -11 26 -13 19 -93 -7 -93 3
-125 40 -125 38 0 51 26 56 119 l5 86 40 3 c36 3 65 22 65 44 0 4 -9 17 -20
28 -17 17 -33 20 -107 20 -49 0 -96 -5 -105 -11z"/>
<path d="M3032 3057 c-6 -7 -12 -37 -14 -67 -3 -46 -6 -55 -23 -57 -15 -2 -25
8 -40 40 -13 28 -27 43 -42 45 -36 5 -44 -25 -28 -104 34 -162 57 -200 104
-168 19 13 22 23 18 49 -9 55 27 75 44 25 17 -49 81 -53 93 -6 7 30 -40 215
-61 238 -19 21 -37 23 -51 5z"/>
<path d="M2635 2992 c-40 -25 -54 -43 -60 -78 -13 -66 59 -134 141 -134 26 0
44 -5 47 -14 9 -22 -14 -36 -59 -36 -94 0 -100 -84 -7 -97 54 -7 84 1 122 33
36 30 48 78 31 129 -16 47 -48 67 -123 74 -53 5 -62 9 -62 26 0 18 7 20 58 20
63 0 83 15 66 47 -13 24 -61 48 -96 48 -15 0 -41 -8 -58 -18z"/>
<path d="M2130 2953 c-24 -9 -52 -36 -61 -60 -6 -16 -17 -23 -35 -23 -40 0
-91 -44 -105 -89 -6 -22 -24 -48 -39 -60 -16 -11 -33 -36 -40 -55 -6 -19 -20
-38 -30 -41 -29 -9 -70 -64 -70 -93 0 -19 -11 -36 -37 -58 -30 -26 -37 -37
-36 -66 1 -29 -4 -38 -29 -53 -33 -19 -62 -76 -53 -105 13 -41 79 -32 68 10
-8 30 38 54 90 46 33 -5 47 -3 56 8 17 21 -1 51 -39 64 -53 19 -35 43 40 52
40 4 45 8 48 33 3 22 -1 30 -17 34 -25 6 -27 26 -4 48 12 13 26 15 56 11 63
-10 93 35 45 68 -17 12 -19 18 -9 30 10 12 24 14 58 9 33 -4 47 -2 54 8 15 24
10 39 -21 57 -28 17 -28 20 -14 40 17 24 70 30 106 11 24 -13 64 -5 72 16 8
22 -2 40 -30 55 -13 7 -24 17 -24 22 0 16 33 7 62 -17 33 -28 48 -31 66 -13
19 19 14 42 -15 70 -47 43 -77 54 -113 41z"/>
<path d="M4870 2805 c-22 -26 -50 -185 -50 -281 0 -113 4 -118 98 -112 56 3
76 9 105 31 48 37 62 80 42 136 -10 30 -12 48 -5 61 18 33 12 95 -12 125 -39
50 -149 75 -178 40z m98 -97 c15 -15 -3 -38 -29 -38 -14 0 -19 7 -19 25 0 27
26 35 48 13z m-3 -155 c16 -16 16 -18 -5 -35 -30 -25 -44 -18 -48 20 -3 26 0
32 17 32 11 0 27 -8 36 -17z"/>
<path d="M5215 2707 c-15 -35 -35 -166 -35 -226 0 -67 68 -95 89 -38 16 41 24
266 11 282 -21 26 -50 18 -65 -18z"/>
<path d="M2103 2700 c-36 -22 -52 -62 -33 -85 17 -20 33 -19 48 5 13 21 56 27
81 11 22 -14 51 6 51 35 0 19 -8 28 -35 40 -46 19 -74 18 -112 -6z"/>
<path d="M5474 2691 c-26 -11 -31 -25 -50 -121 -17 -91 -18 -172 -2 -188 16
-16 53 -15 66 1 6 7 13 28 14 46 3 47 13 47 41 -2 14 -23 34 -50 46 -61 19
-18 22 -18 46 -2 30 20 32 54 5 89 -11 14 -20 30 -20 37 0 7 9 23 20 37 11 14
20 37 20 52 0 31 -31 86 -57 99 -28 15 -106 23 -129 13z m86 -102 c0 -12 -29
-24 -37 -16 -3 4 -3 13 0 21 6 16 37 11 37 -5z"/>
<path d="M5840 2667 c-24 -12 -25 -15 -28 -141 -2 -109 0 -132 14 -147 21 -24
74 -25 137 -3 82 28 122 103 98 184 -25 85 -148 144 -221 107z m104 -108 c31
-24 34 -59 7 -83 -33 -30 -55 -17 -59 33 -5 74 7 86 52 50z"/>
<path d="M2282 2584 c-15 -10 -22 -24 -20 -37 3 -19 9 -22 41 -20 31 2 40 -2
49 -22 13 -30 33 -38 59 -25 36 20 19 79 -31 105 -37 19 -70 19 -98 -1z"/>
<path d="M1993 2561 c-63 -29 -96 -110 -57 -142 14 -12 19 -10 33 10 43 62 61
74 101 67 28 -4 43 -2 54 10 21 20 20 30 -4 54 -25 25 -72 25 -127 1z"/>
<path d="M2145 2455 c-36 -19 -55 -42 -55 -67 0 -27 28 -33 61 -14 16 9 48 20
70 24 49 8 70 32 50 56 -17 21 -86 21 -126 1z"/>
<path d="M2476 2411 c-23 -25 -11 -49 27 -53 23 -2 37 -12 52 -35 15 -25 26
-32 45 -30 27 2 37 29 26 73 -14 53 -115 84 -150 45z"/>
<path d="M2160 2333 c-54 -7 -71 -14 -104 -43 -38 -34 -52 -71 -36 -100 15
-29 37 -25 55 11 18 33 67 59 114 59 36 0 57 29 38 52 -15 19 -35 25 -67 21z"/>
<path d="M2325 2318 c-43 -23 -60 -70 -30 -82 9 -3 31 2 51 11 34 17 36 16 79
-7 36 -20 46 -22 59 -11 24 20 19 49 -10 76 -21 20 -37 25 -78 25 -28 0 -60
-6 -71 -12z"/>
<path d="M1812 2285 c-55 -31 -81 -63 -82 -97 0 -42 18 -43 58 -5 64 60 101
70 152 40 24 -14 31 -14 44 -4 25 21 19 50 -16 71 -45 27 -103 25 -156 -5z"/>
</g>
</svg>
